<svg id="shapes" xmlns="http://www.w3.org/2000/svg" viewBox="0 0 512 512"><defs><style>.cls-1{fill:#fcd026;}.cls-2{fill:#fd9d26;}.cls-3{fill:#fdea51;}.cls-4{fill:#87540e;}.cls-5{fill:#caa163;}.cls-6{fill:#fff;}.cls-7{fill:#ff798a;}.cls-8{fill:#e73c1d;}.cls-9{fill:#b83126;}.cls-10{fill:#eb4c2a;}.cls-11{fill:#73271c;}.cls-12{fill:#c99b95;}</style></defs><circle class="cls-1" cx="94.40709" cy="112.34392" r="42.40709"/><path class="cls-2" d="M57.12853,132.57558s35.50276,35.07414,74.557,0c0,0-14.72191,27.07825-45.08339,21.44631C86.60219,154.02189,66.49776,150.68688,57.12853,132.57558Z"/><path class="cls-3" d="M112.30432,81.40675c-.15772,2.25663-10.72173,3.36308-17.423,3.3725-6.82712.00958-17.45642-1.10861-17.614-3.3725-.14789-2.12536,8.93318-5.26658,17.614-5.24621C103.4625,76.18061,112.45209,79.29235,112.30432,81.40675Z"/><ellipse class="cls-4" cx="79.0229" cy="101.02274" rx="4.24071" ry="5.30089"/><ellipse class="cls-5" cx="78.58368" cy="97.82327" rx="1.68114" ry="2.10142"/><ellipse class="cls-4" cx="108.89718" cy="101.02274" rx="4.24071" ry="5.30089"/><ellipse class="cls-5" cx="108.45797" cy="97.82327" rx="1.68114" ry="2.10142"/><path class="cls-4" d="M66.51011,115.93036c6.892,1.81369,30.72509,7.01038,55.88278-.00313a1.30247,1.30247,0,0,1,1.65676,1.45857c-1.06238,6.407-6.21658,25.924-29.6334,26.61523,0,0-26.12908-.78406-29.65578-26.46988A1.41923,1.41923,0,0,1,66.51011,115.93036Z"/><path class="cls-6" d="M120.57658,119.90855c-.58988-2.83732-3.03688-1.19787-4.56412-.94344a124.46658,124.46658,0,0,1-44.29243-.154c-1.23087-.23618-3.16474-1.645-3.86876.5376a4.21716,4.21716,0,0,0,1.65665,4.50562,9.287,9.287,0,0,0,3.23437,1.27436,86.33832,86.33832,0,0,0,23.27822,2.68047c1.60955-.0814,4.49359-.06186,7.333-.40805,4.67322-.56982,9.4171-.79888,13.9068-2.46667C119.63961,124.05052,121.053,122.19922,120.57658,119.90855Z"/><path class="cls-7" d="M107.53778,136.01127c-2.76993,2.2527-7.02512,4.07529-13.54778,4.07529-6.01522,0-10.03772-1.83008-12.71359-4.092a51.52144,51.52144,0,0,1,26.26137.01671Z"/><circle class="cls-1" cx="256" cy="112.34392" r="42.40709"/><path class="cls-2" d="M218.72143,132.57558s35.50277,35.07414,74.55705,0c0,0-14.7219,27.07825-45.08338,21.44631C248.1951,154.02189,228.09067,150.68688,218.72143,132.57558Z"/><path class="cls-3" d="M273.89723,81.40675c-.15772,2.25663-10.72173,3.36308-17.423,3.3725-6.82713.00958-17.45642-1.10861-17.614-3.3725-.14789-2.12536,8.93319-5.26658,17.614-5.24621C265.0554,76.18061,274.045,79.29235,273.89723,81.40675Z"/><path class="cls-4" d="M228.103,115.93036c6.892,1.81369,30.72509,7.01038,55.88279-.00313a1.30248,1.30248,0,0,1,1.65676,1.45857c-1.06238,6.407-6.21658,25.924-29.63341,26.61523,0,0-26.12907-.78406-29.65577-26.46988A1.41923,1.41923,0,0,1,228.103,115.93036Z"/><path class="cls-6" d="M282.16949,119.90855c-.58988-2.83732-3.03688-1.19787-4.56412-.94344a124.46657,124.46657,0,0,1-44.29243-.154c-1.23088-.23618-3.16474-1.645-3.86877.5376a4.21717,4.21717,0,0,0,1.65666,4.50562,9.28695,9.28695,0,0,0,3.23437,1.27436,86.33827,86.33827,0,0,0,23.27822,2.68047c1.60954-.0814,4.49358-.06186,7.333-.40805,4.67321-.56982,9.41709-.79888,13.9068-2.46667C281.23252,124.05052,282.64587,122.19922,282.16949,119.90855Z"/><path class="cls-7" d="M269.13068,136.01127c-2.76992,2.2527-7.02512,4.07529-13.54778,4.07529-6.01521,0-10.03771-1.83008-12.71358-4.092a51.5214,51.5214,0,0,1,26.26136.01671Z"/><path class="cls-4" d="M278.322,107.08071a5.50009,5.50009,0,0,0-2.29915-1.25346c-.99378-.3948-2.00127-.75857-2.97325-1.206a11.54469,11.54469,0,0,1-2.69574-1.633c-.38954-.3325-.79484-.68217-.59129-1.234.18509-.50182.80573-.872,1.2259-1.14862.9975-.65679,1.9814-1.32191,2.92685-2.053a8.59315,8.59315,0,0,0,2.57641-2.455,1.9514,1.9514,0,0,0-.30225-2.23032,2.26088,2.26088,0,0,0-.2479-.20022,1.97478,1.97478,0,0,0-.49195-.5204c-.0332-.03474-.04717-.07832-.08537-.11075a2.07012,2.07012,0,0,0-1.05568-.44953,2.11068,2.11068,0,0,0-1.25078.13369c-.04653.013-.08678-.01051-.13459.01859a61.09464,61.09464,0,0,0-5.57208,3.81782q-1.27994.98654-2.50732,2.03857a16.856,16.856,0,0,0-2.41183,2.2616c-1.42958,1.8445.57771,2.90493,1.98384,3.72733a47.51712,47.51712,0,0,0,5.77435,2.941,23.21072,23.21072,0,0,0,6.1803,1.68568,2.34163,2.34163,0,0,0,1.91923-.37082A1.26637,1.26637,0,0,0,278.322,107.08071Z"/><path class="cls-4" d="M233.678,107.08071a5.50009,5.50009,0,0,1,2.29915-1.25346c.99378-.3948,2.00127-.75857,2.97325-1.206a11.54469,11.54469,0,0,0,2.69574-1.633c.38954-.3325.79484-.68217.59129-1.234-.18509-.50182-.80573-.872-1.2259-1.14862-.9975-.65679-1.9814-1.32191-2.92685-2.053a8.59315,8.59315,0,0,1-2.57641-2.455,1.9514,1.9514,0,0,1,.30225-2.23032,2.26088,2.26088,0,0,1,.2479-.20022,1.97478,1.97478,0,0,1,.492-.5204c.0332-.03474.04717-.07832.08537-.11075a2.07012,2.07012,0,0,1,1.05568-.44953,2.11068,2.11068,0,0,1,1.25078.13369c.04653.013.08678-.01051.13459.01859a61.09464,61.09464,0,0,1,5.57208,3.81782q1.27993.98654,2.50732,2.03857a16.856,16.856,0,0,1,2.41183,2.2616c1.42958,1.8445-.57771,2.90493-1.98384,3.72733a47.51712,47.51712,0,0,1-5.77435,2.941,23.21072,23.21072,0,0,1-6.1803,1.68568,2.34163,2.34163,0,0,1-1.91923-.37082A1.26637,1.26637,0,0,1,233.678,107.08071Z"/><circle class="cls-1" cx="417.59291" cy="112.34392" r="42.40709"/><path class="cls-2" d="M380.31434,132.57558s35.50276,35.07414,74.55705,0c0,0-14.7219,27.07825-45.08339,21.44631C409.788,154.02189,389.68357,150.68688,380.31434,132.57558Z"/><path class="cls-3" d="M435.49013,81.40675c-.15771,2.25663-10.72173,3.36308-17.423,3.3725-6.82713.00958-17.45642-1.10861-17.614-3.3725-.14789-2.12536,8.93319-5.26658,17.614-5.24621C426.64831,76.18061,435.6379,79.29235,435.49013,81.40675Z"/><path class="cls-4" d="M389.69592,115.93036c6.892,1.81369,30.72509,7.01038,55.88278-.00313a1.30248,1.30248,0,0,1,1.65677,1.45857c-1.06239,6.407-6.21659,25.924-29.63341,26.61523,0,0-26.12907-.78406-29.65578-26.46988A1.41923,1.41923,0,0,1,389.69592,115.93036Z"/><path class="cls-6" d="M443.76239,119.90855c-.58987-2.83732-3.03688-1.19787-4.56412-.94344a124.46658,124.46658,0,0,1-44.29243-.154c-1.23087-.23618-3.16474-1.645-3.86876.5376a4.21716,4.21716,0,0,0,1.65665,4.50562,9.287,9.287,0,0,0,3.23437,1.27436,86.33832,86.33832,0,0,0,23.27822,2.68047c1.60955-.0814,4.49359-.06186,7.333-.40805,4.67322-.56982,9.4171-.79888,13.9068-2.46667C442.82542,124.05052,444.23878,122.19922,443.76239,119.90855Z"/><path class="cls-7" d="M430.72359,136.01127c-2.76993,2.2527-7.02512,4.07529-13.54778,4.07529-6.01522,0-10.03771-1.83008-12.71359-4.092a51.52144,51.52144,0,0,1,26.26137.01671Z"/><path class="cls-4" d="M411.54583,98.1939a8.24252,8.24252,0,0,0-14.95-.53159,10.19028,10.19028,0,0,0-.17534,7.9541.87055.87055,0,0,0,1.65764-.07631c.81725-.82773,1.17133-1.94085,1.909-2.82449a6.177,6.177,0,0,1,3.6257-1.99607c2.9567-.40768,4.86463,2.55474,6.21593,4.69773a.77459.77459,0,0,0,.71782.376.80409.80409,0,0,0,1.20249-.47216A11.04508,11.04508,0,0,0,411.54583,98.1939Zm-10.686,1.764c.00925.00244.01945.00244.0287.00476l-.04679.02557Z"/><path class="cls-4" d="M438.793,98.1939a8.24253,8.24253,0,0,0-14.95-.53159,10.19032,10.19032,0,0,0-.17534,7.9541.87055.87055,0,0,0,1.65764-.07631c.81726-.82773,1.17134-1.94085,1.909-2.82449a6.177,6.177,0,0,1,3.62569-1.99607c2.9567-.40768,4.86463,2.55474,6.21594,4.69773a.77458.77458,0,0,0,.71782.376.80408.80408,0,0,0,1.20248-.47216A11.04515,11.04515,0,0,0,438.793,98.1939Zm-10.686,1.764c.00925.00244.01946.00244.02871.00476l-.0468.02557Z"/><circle class="cls-1" cx="94.40709" cy="255.90149" r="42.40709"/><path class="cls-2" d="M57.12853,276.13315s35.50276,35.07414,74.557,0c0,0-14.72191,27.07825-45.08339,21.44631C86.60219,297.57946,66.49776,294.24445,57.12853,276.13315Z"/><path class="cls-3" d="M112.30432,224.96432c-.15772,2.25663-10.72173,3.36309-17.423,3.3725-6.82712.00959-17.45642-1.1086-17.614-3.3725-.14789-2.12536,8.93318-5.26658,17.614-5.24621C103.4625,219.73818,112.45209,222.84992,112.30432,224.96432Z"/><ellipse class="cls-4" cx="79.0229" cy="251.64816" rx="4.24071" ry="5.30089"/><ellipse class="cls-5" cx="78.58368" cy="248.44869" rx="1.68114" ry="2.10142"/><ellipse class="cls-4" cx="108.89718" cy="251.64816" rx="4.24071" ry="5.30089"/><ellipse class="cls-5" cx="108.45797" cy="248.44869" rx="1.68114" ry="2.10142"/><path class="cls-4" d="M103.92591,273.10686c2.99628,2.99627,7.35124,7.508,6.27016,8.33246-1.41114,1.07608-5.89962-4.23469-14.13566-4.23577H94.56784c-8.23605.00108-12.72449,5.31185-14.13562,4.23577-1.08108-.82442,3.09437-5.33619,6.09064-8.33246C90.87363,268.75609,99.57515,268.75609,103.92591,273.10686Z"/><path class="cls-4" d="M84.57559,231.90434a.72986.72986,0,0,0-.26794-.3018.67335.67335,0,0,0-.58129-.68551c-1.73523-.34376-2.81734.9253-3.80359,2.15971a16.17751,16.17751,0,0,1-4.66491,3.97076,30.51233,30.51233,0,0,1-11.12028,3.28538.82019.82019,0,0,0-.217,1.60246,18.52306,18.52306,0,0,0,12.86163-.71566,18.27532,18.27532,0,0,0,5.378-3.51641C83.6848,236.257,85.65465,234.12805,84.57559,231.90434Zm-1.47141.58208c.00438.026.01341.05232.02045.07874a1.33352,1.33352,0,0,0-.188-.07289A.96334.96334,0,0,1,83.10418,232.48642Z"/><path class="cls-4" d="M106.6539,237.70327a18.27532,18.27532,0,0,0,5.378,3.51641,18.523,18.523,0,0,0,12.86162.71566.82019.82019,0,0,0-.21695-1.60246,30.51233,30.51233,0,0,1-11.12028-3.28538,16.17751,16.17751,0,0,1-4.66491-3.97076c-.98625-1.23441-2.06836-2.50347-3.80359-2.15971a.67334.67334,0,0,0-.58129.68551.72986.72986,0,0,0-.26794.3018C103.15954,234.12805,105.12938,236.257,106.6539,237.70327Zm-.77633-5.211a1.33305,1.33305,0,0,0-.188.07289c.007-.02642.01607-.05271.02045-.07874A.96334.96334,0,0,1,105.87757,232.49227Z"/><circle class="cls-1" cx="256" cy="255.90149" r="42.40709"/><path class="cls-2" d="M218.72143,276.13315s35.50277,35.07414,74.55705,0c0,0-14.7219,27.07825-45.08338,21.44631C248.1951,297.57946,228.09067,294.24445,218.72143,276.13315Z"/><path class="cls-3" d="M273.89723,224.96432c-.15772,2.25663-10.72173,3.36309-17.423,3.3725-6.82713.00959-17.45642-1.1086-17.614-3.3725-.14789-2.12536,8.93319-5.26658,17.614-5.24621C265.0554,219.73818,274.045,222.84992,273.89723,224.96432Z"/><path class="cls-4" d="M245.20966,236.51538a.68137.68137,0,0,0-.192-.32413.62855.62855,0,0,0-.41106-.73139c-1.52922-.623-2.74611.348-3.869,1.30423a15.101,15.101,0,0,1-4.97973,2.81109,28.48206,28.48206,0,0,1-10.774,1.03738.76561.76561,0,0,0-.4832,1.43,17.29047,17.29047,0,0,0,11.91381,1.62662,17.05924,17.05924,0,0,0,5.55264-2.26814C243.62088,240.34617,245.80392,238.74475,245.20966,236.51538Zm-1.45175.27231c-.0006.02463.003.05033.00477.07579a1.24619,1.24619,0,0,0-.15936-.10017A.90006.90006,0,0,1,243.75791,236.78769Z"/><path class="cls-4" d="M270.0329,241.40108a17.05924,17.05924,0,0,0,5.55264,2.26814,17.29047,17.29047,0,0,0,11.91381-1.62662.76561.76561,0,0,0-.4832-1.43,28.48206,28.48206,0,0,1-10.774-1.03738,15.101,15.101,0,0,1-4.97973-2.81109c-1.1229-.95622-2.33979-1.92719-3.869-1.30423a.62855.62855,0,0,0-.41106.73139.68137.68137,0,0,0-.192.32413C266.19608,238.74475,268.37912,240.34617,270.0329,241.40108Zm-1.63622-4.63777a1.24619,1.24619,0,0,0-.15936.10017c.00176-.02546.00537-.05116.00477-.07579A.90006.90006,0,0,1,268.39668,236.76331Z"/><path class="cls-4" d="M247.24,252.072a.92945.92945,0,0,0-.69653.2332c-2.13761,1.84123-4.7338,3.35513-7.63433,3.35881-2.87553.00368-5.11924-1.746-7.12268-3.6193a.92817.92817,0,0,0-1.38618.12143.75415.75415,0,0,0-.402.77626c.44126,5.18348,4.60592,9.54547,9.97584,9.4015a9.25149,9.25149,0,0,0,8.81459-9.549A.97634.97634,0,0,0,247.24,252.072Zm-.54705,2.66319c-.03909-.02484-.0834-.03941-.12419-.06164.05719-.04247.11622-.08264.1731-.12557C246.72884,254.61144,246.70753,254.67215,246.693,254.73517Z"/><path class="cls-4" d="M264.54331,252.79489a9.2515,9.2515,0,0,0,8.81459,9.549c5.36992.144,9.53459-4.218,9.97584-9.4015a.75415.75415,0,0,0-.402-.77626.92817.92817,0,0,0-1.38618-.12143c-2.00345,1.87327-4.24715,3.623-7.12269,3.6193-2.90053-.00368-5.49672-1.51758-7.63432-3.35881a.92947.92947,0,0,0-.69654-.2332A.97634.97634,0,0,0,264.54331,252.79489Zm2.04684,1.75307c.05688.04293.11591.0831.1731.12557-.04078.02223-.08509.0368-.12419.06164C266.6245,254.67215,266.60318,254.61144,266.59015,254.548Z"/><path class="cls-4" d="M244.76322,279.5355h22.47356c3.23272,0,3.23807-5.024,0-5.024H244.76322c-3.23272,0-3.23807,5.024,0,5.024Z"/><circle class="cls-1" cx="417.59291" cy="255.90149" r="42.40709"/><path class="cls-2" d="M380.31434,276.13315s35.50276,35.07414,74.55705,0c0,0-14.7219,27.07825-45.08339,21.44631C409.788,297.57946,389.68357,294.24445,380.31434,276.13315Z"/><path class="cls-3" d="M435.49013,224.96432c-.15771,2.25663-10.72173,3.36309-17.423,3.3725-6.82713.00959-17.45642-1.1086-17.614-3.3725-.14789-2.12536,8.93319-5.26658,17.614-5.24621C426.64831,219.73818,435.6379,222.84992,435.49013,224.96432Z"/><path class="cls-4" d="M426.85261,267.84666c3.39729,3.3973,8.33511,8.51291,7.10934,9.44767-1.6,1.2201-6.68921-4.80146-16.02755-4.80268h-1.69233c-9.33835.00122-14.42751,6.02278-16.02751,4.80268-1.22577-.93476,3.50852-6.05038,6.90581-9.44767C412.05343,262.9136,421.91955,262.9136,426.85261,267.84666Z"/><path class="cls-4" d="M407.92612,241.38461a.95316.95316,0,0,0-.71433.23916c-2.19221,1.88827-4.85472,3.44083-7.82935,3.44461-2.949.00377-5.25-1.79063-7.30464-3.71176a.95189.95189,0,0,0-1.42159.12453.77343.77343,0,0,0-.41227.7961c.45253,5.31589,4.72358,9.78931,10.23068,9.64166a9.48783,9.48783,0,0,0,9.03976-9.79292A1.00129,1.00129,0,0,0,407.92612,241.38461Zm-.561,2.73122c-.04009-.02547-.08554-.04041-.12736-.06321.05865-.04355.11919-.08475.17752-.12878C407.40189,243.98894,407.38,244.05121,407.36509,244.11583Z"/><path class="cls-4" d="M425.67144,242.126a9.48782,9.48782,0,0,0,9.03976,9.79292c5.50709.14765,9.77814-4.32577,10.23067-9.64166a.77343.77343,0,0,0-.41227-.7961.95189.95189,0,0,0-1.42159-.12453c-2.05463,1.92113-4.35565,3.71553-7.30464,3.71176-2.97463-.00378-5.63713-1.55634-7.82934-3.44461a.95318.95318,0,0,0-.71434-.23916A1.00128,1.00128,0,0,0,425.67144,242.126Zm2.09912,1.79785c.05834.044.11887.08523.17752.12878-.04182.0228-.08726.03774-.12736.06321C427.80578,244.05121,427.78393,243.98894,427.77056,243.92384Z"/><circle class="cls-8" cx="94.40709" cy="399.61442" r="42.40709"/><path class="cls-9" d="M57.12853,419.84608s35.50276,35.07414,74.557,0c0,0-14.72191,27.07825-45.08339,21.44631C86.60219,441.29239,66.49776,437.95738,57.12853,419.84608Z"/><path class="cls-10" d="M112.30432,368.67725c-.15772,2.25663-10.72173,3.36309-17.423,3.3725-6.82712.00959-17.45642-1.1086-17.614-3.3725-.14789-2.12536,8.93318-5.26658,17.614-5.24621C103.4625,363.45111,112.45209,366.56285,112.30432,368.67725Z"/><path class="cls-11" d="M86.63115,387.14875c-1.77805-3.64371-5.74047-5.98994-9.51217-7.07761a20.33892,20.33892,0,0,0-14.02509,1.16049c-1.46716.66695-.155,2.01366,1.10065,1.54517,3.96147-1.47811,8.502.03172,12.18322,2.10035a6.7465,6.7465,0,0,0,6.38075,11.278,6.09537,6.09537,0,0,0,4.27353-3.32069A6.82719,6.82719,0,0,0,86.63115,387.14875Z"/><path class="cls-12" d="M84.60538,389.78246a3.47661,3.47661,0,1,1-5.887-3.57467Z"/><path class="cls-11" d="M100.65888,392.83443a6.09537,6.09537,0,0,0,4.27353,3.32069,6.7465,6.7465,0,0,0,6.38075-11.278c3.68121-2.06863,8.22175-3.57846,12.18322-2.10035,1.25562.46849,2.56781-.87822,1.10065-1.54517a20.33892,20.33892,0,0,0-14.02509-1.16049c-3.7717,1.08767-7.73412,3.4339-9.51217,7.07761A6.82719,6.82719,0,0,0,100.65888,392.83443Z"/><path class="cls-12" d="M103.08554,389.78246a3.47661,3.47661,0,1,0,5.887-3.57467Z"/><path class="cls-11" d="M104.17477,411.55959c3.3973,3.3973,8.33512,8.51291,7.10935,9.44767-1.6,1.2201-6.68921-4.80146-16.02756-4.80268H93.56423c-9.33834.00122-14.4275,6.02278-16.02751,4.80268-1.22576-.93476,3.50853-6.05038,6.90581-9.44767C89.37559,406.62653,99.24171,406.62653,104.17477,411.55959Z"/><circle class="cls-1" cx="256" cy="399.61442" r="42.40709"/><path class="cls-2" d="M218.72143,419.84608s35.50277,35.07414,74.55705,0c0,0-14.7219,27.07825-45.08338,21.44631C248.1951,441.29239,228.09067,437.95738,218.72143,419.84608Z"/><path class="cls-3" d="M273.89723,368.67725c-.15772,2.25663-10.72173,3.36309-17.423,3.3725-6.82713.00959-17.45642-1.1086-17.614-3.3725-.14789-2.12536,8.93319-5.26658,17.614-5.24621C265.0554,363.45111,274.045,366.56285,273.89723,368.67725Z"/><ellipse class="cls-4" cx="240.61581" cy="388.29324" rx="4.24071" ry="5.30089"/><ellipse class="cls-5" cx="240.17659" cy="385.09378" rx="1.68114" ry="2.10142"/><ellipse class="cls-4" cx="270.49009" cy="388.29324" rx="4.24071" ry="5.30089"/><ellipse class="cls-5" cx="270.05087" cy="385.09378" rx="1.68114" ry="2.10142"/><path class="cls-9" d="M263.95985,414.83122a6.10111,6.10111,0,0,0-1.00854-.81718,5.76469,5.76469,0,0,0,2.14806-5.04139,6.206,6.206,0,0,0-2.57423-4.45951,8.66513,8.66513,0,0,0-5.50791-1.21291,15.86276,15.86276,0,0,0-6.68551,1.96989c-1.50093.83215-.15768,3.13545,1.34553,2.302a12.77886,12.77886,0,0,1,5.45079-1.613c1.57334-.089,3.48205.03287,4.55958,1.35237a3.40985,3.40985,0,0,1,.42828,3.691,3.54159,3.54159,0,0,1-3.44885,1.78129,1.10127,1.10127,0,0,0-.76918.2711,1.32358,1.32358,0,0,0,.87674,2.49238,3.57791,3.57791,0,0,1,3.374,5.81334c-1.187,1.478-3.38035,1.66625-5.13414,1.65665a15.49183,15.49183,0,0,1-6.2509-1.34911,1.37379,1.37379,0,0,0-1.82376.47807,1.3436,1.3436,0,0,0,.47823,1.82393,18.969,18.969,0,0,0,6.61181,1.67862,11.8542,11.8542,0,0,0,6.282-1.05A6.32809,6.32809,0,0,0,263.95985,414.83122Z"/><circle class="cls-1" cx="417.59291" cy="399.61442" r="42.40709"/><path class="cls-2" d="M380.31434,419.84608s35.50276,35.07414,74.55705,0c0,0-14.7219,27.07825-45.08339,21.44631C409.788,441.29239,389.68357,437.95738,380.31434,419.84608Z"/><path class="cls-3" d="M435.49013,368.67725c-.15771,2.25663-10.72173,3.36309-17.423,3.3725-6.82713.00959-17.45642-1.1086-17.614-3.3725-.14789-2.12536,8.93319-5.26658,17.614-5.24621C426.64831,363.45111,435.6379,366.56285,435.49013,368.67725Z"/><ellipse class="cls-4" cx="432.8358" cy="399.53902" rx="5.60551" ry="6.72661"/><ellipse class="cls-5" cx="431.7147" cy="398.41792" rx="2.2422" ry="3.36331"/><path class="cls-4" d="M408.98817,398.17514c-2.06388-1.55548-5.1023-1.2908-7.49272-.862a13.25757,13.25757,0,0,0-7.14319,3.48935c-.09607.06514-.2009.11222-.2956.17982a.56587.56587,0,0,0-.23279.58012.55139.55139,0,0,0,.77719.68482,17.79812,17.79812,0,0,1,7.99647-2.40931,9.1439,9.1439,0,0,1,3.57133.47256,5.17934,5.17934,0,0,1,1.534.87531,4.867,4.867,0,0,0,1.29587,1.00683c1.04706.40043,1.67207-.48446,1.55835-1.45954A3.85976,3.85976,0,0,0,408.98817,398.17514Z"/><path class="cls-4" d="M432.17933,416.35138l-.00383-.02792a.56007.56007,0,0,0-.14411-.24743l-.11345-.08759a.557.557,0,0,0-.28287-.0765H431.539a.47364.47364,0,0,0-.55234.09649,17.75938,17.75938,0,0,1-12.83465,5.22724c-5.25831-.08594-9.89544-2.79413-13.74827-6.1807a.49916.49916,0,0,0-.28575-.0958c-.00643-.00712-.00726-.01738-.0141-.02422l-.12-.12016a.57646.57646,0,0,0-.79279,0l-.08772.11345a.5448.5448,0,0,0-.02135.07924.46025.46025,0,0,0-.24921.4367c.47926,15.29663,27.275,16.29416,29.5139,1.391A.55262.55262,0,0,0,432.17933,416.35138Z"/><path class="cls-4" d="M425.53216,380.23048c-.06735.14432-.4245.916-.23107,1.28163.827,1.56371,2.49434,1.60371,4.07431,1.59114a16.17743,16.17743,0,0,1,6.02314,1.11807,30.5121,30.5121,0,0,1,9.56056,6.56125.82019.82019,0,0,0,1.38071-.84178,18.523,18.523,0,0,0-8.6635-9.53295,18.27552,18.27552,0,0,0-6.12-1.95808C429.47253,378.17808,426.57812,377.991,425.53216,380.23048Z"/><path class="cls-4" d="M403.54793,384.34925a18.2752,18.2752,0,0,0-6.39007.6748,18.523,18.523,0,0,0-10.41849,7.57553c-.53878.82626.43229,1.5646,1.18106,1.10456a30.51242,30.51242,0,0,1,10.69353-4.4836,16.17748,16.17748,0,0,1,6.1247.12806c1.54451.33307,3.18521.63241,4.3125-.73083.26363-.31873.07059-1.14686.03394-1.30185C408.51558,384.91073,405.64348,384.50628,403.54793,384.34925Z"/></svg>